<svg xmlns="http://www.w3.org/2000/svg" width="700" height="460" viewBox="0 0 700 460"><rect x="6" y="6" width="688" height="448" rx="14" fill="#F5F7FA" stroke="#E1E6ED" stroke-width="1.2"/><text x="350.00" y="32.00" font-family="'Noto Sans CJK TC','Noto Sans TC','Microsoft JhengHei','PingFang TC','Heiti TC',sans-serif" font-size="15.5" fill="#1F2733" text-anchor="middle" dominant-baseline="middle" font-weight="700">題目重繪</text><text x="350.00" y="55.00" font-family="'Noto Sans CJK TC','Noto Sans TC','Microsoft JhengHei','PingFang TC','Heiti TC',sans-serif" font-size="12.5" fill="#6B7684" text-anchor="middle" dominant-baseline="middle" font-weight="400">A 固定端　B 剛接　C 滾支承（水平面，只提供垂直反力）　AB = BC = L　EI 為定值</text><line x1="236.00" y1="384.00" x2="236.00" y2="156.00" stroke="#3F4A5A" stroke-width="7.0" stroke-linecap="butt" opacity="1.0"/><line x1="236.00" y1="156.00" x2="464.00" y2="156.00" stroke="#3F4A5A" stroke-width="7.0" stroke-linecap="butt" opacity="1.0"/><line x1="212.00" y1="384.00" x2="260.00" y2="384.00" stroke="#3F4A5A" stroke-width="3.2" stroke-linecap="round"/><line x1="213.67" y1="384.00" x2="206.67" y2="392.00" stroke="#3F4A5A" stroke-width="1.8" stroke-linecap="round"/><line x1="224.84" y1="384.00" x2="217.84" y2="392.00" stroke="#3F4A5A" stroke-width="1.8" stroke-linecap="round"/><line x1="236.00" y1="384.00" x2="229.00" y2="392.00" stroke="#3F4A5A" stroke-width="1.8" stroke-linecap="round"/><line x1="247.16" y1="384.00" x2="240.16" y2="392.00" stroke="#3F4A5A" stroke-width="1.8" stroke-linecap="round"/><line x1="258.33" y1="384.00" x2="251.33" y2="392.00" stroke="#3F4A5A" stroke-width="1.8" stroke-linecap="round"/><polygon points="464.00,156.00 451.76,175.55 476.24,175.55" fill="none" stroke="#3F4A5A" stroke-width="2.6" stroke-linejoin="round"/><circle cx="456.86" cy="179.97" r="4.42" fill="none" stroke="#3F4A5A" stroke-width="2"/><circle cx="464.00" cy="179.97" r="4.42" fill="none" stroke="#3F4A5A" stroke-width="2"/><circle cx="471.14" cy="179.97" r="4.42" fill="none" stroke="#3F4A5A" stroke-width="2"/><line x1="442.75" y1="184.39" x2="485.25" y2="184.39" stroke="#3F4A5A" stroke-width="2.6" stroke-linecap="round"/><line x1="444.23" y1="184.39" x2="437.23" y2="192.39" stroke="#3F4A5A" stroke-width="1.8" stroke-linecap="round"/><line x1="454.12" y1="184.39" x2="447.12" y2="192.39" stroke="#3F4A5A" stroke-width="1.8" stroke-linecap="round"/><line x1="464.00" y1="184.39" x2="457.00" y2="192.39" stroke="#3F4A5A" stroke-width="1.8" stroke-linecap="round"/><line x1="473.88" y1="184.39" x2="466.88" y2="192.39" stroke="#3F4A5A" stroke-width="1.8" stroke-linecap="round"/><line x1="483.77" y1="184.39" x2="476.77" y2="192.39" stroke="#3F4A5A" stroke-width="1.8" stroke-linecap="round"/><text x="216.00" y="150.00" font-family="'Noto Sans CJK TC','Noto Sans TC','Microsoft JhengHei','PingFang TC','Heiti TC',sans-serif" font-size="17" fill="#1F2733" text-anchor="end" dominant-baseline="middle" font-weight="700">B</text><text x="216.00" y="378.00" font-family="'Noto Sans CJK TC','Noto Sans TC','Microsoft JhengHei','PingFang TC','Heiti TC',sans-serif" font-size="17" fill="#1F2733" text-anchor="end" dominant-baseline="middle" font-weight="700">A</text><text x="470.00" y="134.00" font-family="'Noto Sans CJK TC','Noto Sans TC','Microsoft JhengHei','PingFang TC','Heiti TC',sans-serif" font-size="17" fill="#1F2733" text-anchor="start" dominant-baseline="middle" font-weight="700">C</text><line x1="318.08" y1="87.60" x2="318.08" y2="132.60" stroke="#C0392B" stroke-width="3.4" stroke-linecap="round"/><polygon points="318.08,144.60 312.56,132.60 323.60,132.60" fill="#C0392B"/><text x="330.08" y="110.40" font-family="'Noto Sans CJK TC','Noto Sans TC','Microsoft JhengHei','PingFang TC','Heiti TC',sans-serif" font-size="14" fill="#C0392B" text-anchor="start" dominant-baseline="middle" font-weight="700">P = 1（只走 BC）</text><line x1="236.00" y1="384.00" x2="167.56" y2="384.00" stroke="#8A94A6" stroke-width="1" stroke-dasharray="3 3"/><line x1="236.00" y1="156.00" x2="167.56" y2="156.00" stroke="#8A94A6" stroke-width="1" stroke-dasharray="3 3"/><line x1="178.00" y1="384.00" x2="178.00" y2="156.00" stroke="#8A94A6" stroke-width="1.2"/><polygon points="178.00,384.00 181.20,376.00 174.80,376.00" fill="#8A94A6"/><polygon points="178.00,156.00 174.80,164.00 181.20,164.00" fill="#8A94A6"/><text x="164.00" y="270.00" font-family="'Latin Modern Math','Cambria Math','Times New Roman','Nimbus Roman',serif" font-size="14" fill="#8A94A6" text-anchor="middle" dominant-baseline="middle" font-weight="400" font-style="italic">L</text><line x1="236.00" y1="156.00" x2="236.00" y2="94.64" stroke="#8A94A6" stroke-width="1" stroke-dasharray="3 3"/><line x1="464.00" y1="156.00" x2="464.00" y2="94.64" stroke="#8A94A6" stroke-width="1" stroke-dasharray="3 3"/><line x1="236.00" y1="104.00" x2="464.00" y2="104.00" stroke="#8A94A6" stroke-width="1.2"/><polygon points="236.00,104.00 244.00,107.20 244.00,100.80" fill="#8A94A6"/><polygon points="464.00,104.00 456.00,100.80 456.00,107.20" fill="#8A94A6"/><text x="350.00" y="90.00" font-family="'Latin Modern Math','Cambria Math','Times New Roman','Nimbus Roman',serif" font-size="14" fill="#8A94A6" text-anchor="middle" dominant-baseline="middle" font-weight="400" font-style="italic">L</text><text x="350.00" y="410.00" font-family="'Noto Sans CJK TC','Noto Sans TC','Microsoft JhengHei','PingFang TC','Heiti TC',sans-serif" font-size="13.5" fill="#6B7684" text-anchor="middle" dominant-baseline="middle" font-weight="400">反力 4 個（A 為 3、C 為 1）− 平衡 3 式 ⇒ 1 度靜不定</text><text x="176.97" y="436.00" font-family="'Noto Sans CJK TC','Noto Sans TC','Microsoft JhengHei','PingFang TC','Heiti TC',sans-serif" font-size="13.5" fill="#B45309" text-anchor="start" dominant-baseline="middle" font-weight="700">贅力取 C 點垂直反力 V<tspan dy="4.05" font-size="9.18">C</tspan><tspan dy="-4.05" font-size="13.5">　⇒　基本結構 = A 固定的懸臂剛架</tspan></text></svg>