<svg xmlns="http://www.w3.org/2000/svg" width="980" height="690" viewBox="0 0 980 690"><defs><marker id="arE8734A8" markerWidth="6.66" markerHeight="5.63" refX="6.14" refY="2.82" orient="auto"><path d="M0,0 L6.40,2.82 L0,5.63 z" fill="#E8734A"/></marker><marker id="arC0392B7" markerWidth="5.82" markerHeight="4.93" refX="5.38" refY="2.46" orient="auto"><path d="M0,0 L5.60,2.46 L0,4.93 z" fill="#C0392B"/></marker><marker id="arC0392B7s" markerWidth="5.82" markerHeight="4.93" refX="0.45" refY="2.46" orient="auto"><path d="M5.60,0 L0,2.46 L5.60,4.93 z" fill="#C0392B"/></marker></defs><rect width="980" height="690" fill="#FFFFFF"/><rect x="0.00" y="0.00" width="980.00" height="4.00" rx="0" fill="#E8734A"/><text x="26.00" y="34.00" font-family="Noto Serif CJK TC, Noto Serif CJK JP, serif" font-size="22" fill="#1B2A41" text-anchor="start" font-weight="bold">Müller-Breslau 原理：拆掉束制，強迫單位廣義位移</text><text x="26.00" y="57.00" font-family="Noto Sans CJK TC, Noto Sans CJK JP, sans-serif" font-size="12.5" fill="#5C7A99" text-anchor="start" font-weight="normal">把要求的反應對應的束制拆掉，沿該反應正方向給單位位移，畫出來的變形曲線就是影響線。</text><rect x="26.00" y="92.00" width="308.00" height="326.00" rx="6" fill="#F4F6F9" stroke="#E8734A" stroke-width="1.2"/><text x="40.00" y="115.00" font-family="Noto Sans CJK TC, Noto Sans CJK JP, sans-serif" font-size="13.5" fill="#1B2A41" text-anchor="start" font-weight="bold">① 反力 R</text><text x="40.00" y="134.00" font-family="Noto Sans CJK TC, Noto Sans CJK JP, sans-serif" font-size="11.5" fill="#5C7A99" text-anchor="start" font-weight="normal">拿掉支承 → 單位平移 Δ = 1</text><rect x="336.00" y="92.00" width="308.00" height="326.00" rx="6" fill="#F4F6F9" stroke="#E8734A" stroke-width="1.2"/><text x="350.00" y="115.00" font-family="Noto Sans CJK TC, Noto Sans CJK JP, sans-serif" font-size="13.5" fill="#1B2A41" text-anchor="start" font-weight="bold">② 剪力 V</text><text x="350.00" y="134.00" font-family="Noto Sans CJK TC, Noto Sans CJK JP, sans-serif" font-size="11.5" fill="#5C7A99" text-anchor="start" font-weight="normal">切開斷面 → 相對錯動 1、保持平行</text><rect x="646.00" y="92.00" width="308.00" height="326.00" rx="6" fill="#F4F6F9" stroke="#E8734A" stroke-width="1.2"/><text x="660.00" y="115.00" font-family="Noto Sans CJK TC, Noto Sans CJK JP, sans-serif" font-size="13.5" fill="#1B2A41" text-anchor="start" font-weight="bold">③ 彎矩 M</text><text x="660.00" y="134.00" font-family="Noto Sans CJK TC, Noto Sans CJK JP, sans-serif" font-size="11.5" fill="#5C7A99" text-anchor="start" font-weight="normal">插入鉸 → 相對轉角 1 rad</text><line x1="56.00" y1="208.00" x2="304.00" y2="208.00" stroke="#93A9BF" stroke-width="2.0" stroke-linecap="round" stroke-dasharray="5 4"/><polygon points="56.00,208.00 49.18,219.00 62.82,219.00" fill="none" stroke="#4C6B8A" stroke-width="1.5" stroke-linejoin="round"/><line x1="39.00" y1="219.00" x2="73.00" y2="219.00" stroke="#4C6B8A" stroke-width="1.6" stroke-linecap="round"/><line x1="42.40" y1="219.00" x2="37.50" y2="226.00" stroke="#4C6B8A" stroke-width="1.0" stroke-linecap="round"/><line x1="49.20" y1="219.00" x2="44.30" y2="226.00" stroke="#4C6B8A" stroke-width="1.0" stroke-linecap="round"/><line x1="56.00" y1="219.00" x2="51.10" y2="226.00" stroke="#4C6B8A" stroke-width="1.0" stroke-linecap="round"/><line x1="62.80" y1="219.00" x2="57.90" y2="226.00" stroke="#4C6B8A" stroke-width="1.0" stroke-linecap="round"/><line x1="69.60" y1="219.00" x2="64.70" y2="226.00" stroke="#4C6B8A" stroke-width="1.0" stroke-linecap="round"/><polygon points="304.00,208.00 297.18,216.80 310.82,216.80" fill="none" stroke="#C0392B" stroke-width="1.5" stroke-linejoin="round"/><circle cx="299.82" cy="220.00" r="3.20" fill="none" stroke="#C0392B" stroke-width="1.2"/><circle cx="308.18" cy="220.00" r="3.20" fill="none" stroke="#C0392B" stroke-width="1.2"/><line x1="287.00" y1="223.40" x2="321.00" y2="223.40" stroke="#C0392B" stroke-width="1.6" stroke-linecap="round"/><line x1="290.40" y1="223.40" x2="285.50" y2="230.40" stroke="#C0392B" stroke-width="1.0" stroke-linecap="round"/><line x1="297.20" y1="223.40" x2="292.30" y2="230.40" stroke="#C0392B" stroke-width="1.0" stroke-linecap="round"/><line x1="304.00" y1="223.40" x2="299.10" y2="230.40" stroke="#C0392B" stroke-width="1.0" stroke-linecap="round"/><line x1="310.80" y1="223.40" x2="305.90" y2="230.40" stroke="#C0392B" stroke-width="1.0" stroke-linecap="round"/><line x1="317.60" y1="223.40" x2="312.70" y2="230.40" stroke="#C0392B" stroke-width="1.0" stroke-linecap="round"/><text x="56.00" y="252.00" font-family="Noto Sans CJK TC, Noto Sans CJK JP, sans-serif" font-size="11" fill="#1B2A41" text-anchor="middle" font-weight="normal">A</text><text x="304.00" y="252.00" font-family="Noto Sans CJK TC, Noto Sans CJK JP, sans-serif" font-size="11" fill="#1B2A41" text-anchor="middle" font-weight="normal">B</text><path d="M 56.00,208.00 L 304.00,176.00" fill="none" stroke="#E8734A" stroke-width="3.0" stroke-linecap="round" stroke-linejoin="round"/><line x1="304.00" y1="208.00" x2="304.00" y2="176.00" stroke="#E8734A" stroke-width="2.0" marker-end="url(#arE8734A8)"/><text x="294.00" y="170.00" font-family="Noto Sans CJK TC, Noto Sans CJK JP, sans-serif" font-size="11.5" fill="#E8734A" text-anchor="end" font-weight="bold">Δ = 1</text><rect x="42.00" y="272.00" width="276.00" height="128.00" rx="5" fill="#F4F6F9" stroke="#4C6B8A" stroke-width="1.1"/><rect x="42.00" y="272.00" width="4.00" height="128.00" rx="0" fill="#4C6B8A"/><text x="54.00" y="291.00" font-family="Noto Sans CJK TC, Noto Sans CJK JP, sans-serif" font-size="12.5" fill="#4C6B8A" text-anchor="start" font-weight="bold">特徵</text><text x="54.00" y="310.00" font-family="Noto Sans CJK TC, Noto Sans CJK JP, sans-serif" font-size="11.3" fill="#1B2A41" text-anchor="start" font-weight="normal">拆法：拿掉支承，沿 R 正向 Δ = 1</text><text x="54.00" y="326.95" font-family="Noto Sans CJK TC, Noto Sans CJK JP, sans-serif" font-size="11.3" fill="#1B2A41" text-anchor="start" font-weight="normal">縱座標無因次（力／力）</text><text x="54.00" y="343.90" font-family="Noto Sans CJK TC, Noto Sans CJK JP, sans-serif" font-size="11.3" fill="#1B2A41" text-anchor="start" font-weight="normal">該支承處 = 1，其餘支承 = 0</text><text x="54.00" y="360.85" font-family="Noto Sans CJK TC, Noto Sans CJK JP, sans-serif" font-size="11.3" fill="#1B2A41" text-anchor="start" font-weight="normal">靜定 → 一條斜直線</text><line x1="366.00" y1="208.00" x2="614.00" y2="208.00" stroke="#93A9BF" stroke-width="2.0" stroke-linecap="round" stroke-dasharray="5 4"/><polygon points="366.00,208.00 359.18,219.00 372.82,219.00" fill="none" stroke="#4C6B8A" stroke-width="1.5" stroke-linejoin="round"/><line x1="349.00" y1="219.00" x2="383.00" y2="219.00" stroke="#4C6B8A" stroke-width="1.6" stroke-linecap="round"/><line x1="352.40" y1="219.00" x2="347.50" y2="226.00" stroke="#4C6B8A" stroke-width="1.0" stroke-linecap="round"/><line x1="359.20" y1="219.00" x2="354.30" y2="226.00" stroke="#4C6B8A" stroke-width="1.0" stroke-linecap="round"/><line x1="366.00" y1="219.00" x2="361.10" y2="226.00" stroke="#4C6B8A" stroke-width="1.0" stroke-linecap="round"/><line x1="372.80" y1="219.00" x2="367.90" y2="226.00" stroke="#4C6B8A" stroke-width="1.0" stroke-linecap="round"/><line x1="379.60" y1="219.00" x2="374.70" y2="226.00" stroke="#4C6B8A" stroke-width="1.0" stroke-linecap="round"/><polygon points="614.00,208.00 607.18,216.80 620.82,216.80" fill="none" stroke="#4C6B8A" stroke-width="1.5" stroke-linejoin="round"/><circle cx="609.82" cy="220.00" r="3.20" fill="none" stroke="#4C6B8A" stroke-width="1.2"/><circle cx="618.18" cy="220.00" r="3.20" fill="none" stroke="#4C6B8A" stroke-width="1.2"/><line x1="597.00" y1="223.40" x2="631.00" y2="223.40" stroke="#4C6B8A" stroke-width="1.6" stroke-linecap="round"/><line x1="600.40" y1="223.40" x2="595.50" y2="230.40" stroke="#4C6B8A" stroke-width="1.0" stroke-linecap="round"/><line x1="607.20" y1="223.40" x2="602.30" y2="230.40" stroke="#4C6B8A" stroke-width="1.0" stroke-linecap="round"/><line x1="614.00" y1="223.40" x2="609.10" y2="230.40" stroke="#4C6B8A" stroke-width="1.0" stroke-linecap="round"/><line x1="620.80" y1="223.40" x2="615.90" y2="230.40" stroke="#4C6B8A" stroke-width="1.0" stroke-linecap="round"/><line x1="627.60" y1="223.40" x2="622.70" y2="230.40" stroke="#4C6B8A" stroke-width="1.0" stroke-linecap="round"/><text x="366.00" y="252.00" font-family="Noto Sans CJK TC, Noto Sans CJK JP, sans-serif" font-size="11" fill="#1B2A41" text-anchor="middle" font-weight="normal">A</text><text x="614.00" y="252.00" font-family="Noto Sans CJK TC, Noto Sans CJK JP, sans-serif" font-size="11" fill="#1B2A41" text-anchor="middle" font-weight="normal">B</text><path d="M 366.00,208.00 L 465.20,220.80" fill="none" stroke="#E8734A" stroke-width="3.0" stroke-linecap="round" stroke-linejoin="round"/><path d="M 465.20,188.80 L 614.00,208.00" fill="none" stroke="#E8734A" stroke-width="3.0" stroke-linecap="round" stroke-linejoin="round"/><line x1="465.20" y1="220.80" x2="465.20" y2="188.80" stroke="#C0392B" stroke-width="1.4" stroke-linecap="round" stroke-dasharray="4 3"/><line x1="450.20" y1="222.80" x2="450.20" y2="186.80" stroke="#C0392B" stroke-width="1.8" marker-end="url(#arC0392B7)" marker-start="url(#arC0392B7s)"/><text x="444.20" y="206.00" font-family="Noto Sans CJK TC, Noto Sans CJK JP, sans-serif" font-size="12.5" fill="#C0392B" text-anchor="end" font-weight="bold" dominant-baseline="middle">1</text><text x="465.20" y="252.00" font-family="Noto Sans CJK TC, Noto Sans CJK JP, sans-serif" font-size="11" fill="#E8734A" text-anchor="middle" font-weight="bold">C</text><rect x="352.00" y="272.00" width="276.00" height="128.00" rx="5" fill="#F4F6F9" stroke="#4C6B8A" stroke-width="1.1"/><rect x="352.00" y="272.00" width="4.00" height="128.00" rx="0" fill="#4C6B8A"/><text x="364.00" y="291.00" font-family="Noto Sans CJK TC, Noto Sans CJK JP, sans-serif" font-size="12.5" fill="#4C6B8A" text-anchor="start" font-weight="bold">特徵</text><text x="364.00" y="310.00" font-family="Noto Sans CJK TC, Noto Sans CJK JP, sans-serif" font-size="11.3" fill="#1B2A41" text-anchor="start" font-weight="normal">拆法：切開斷面，相對錯動 1</text><text x="364.00" y="326.95" font-family="Noto Sans CJK TC, Noto Sans CJK JP, sans-serif" font-size="11.3" fill="#1B2A41" text-anchor="start" font-weight="normal">兩段必須保持平行（不可相對轉）</text><text x="364.00" y="343.90" font-family="Noto Sans CJK TC, Noto Sans CJK JP, sans-serif" font-size="11.3" fill="#1B2A41" text-anchor="start" font-weight="normal">斷面處必定跳躍 = 1</text><text x="364.00" y="360.85" font-family="Noto Sans CJK TC, Noto Sans CJK JP, sans-serif" font-size="11.3" fill="#1B2A41" text-anchor="start" font-weight="normal">左側 −a/L、右側 +b/L</text><line x1="676.00" y1="208.00" x2="924.00" y2="208.00" stroke="#93A9BF" stroke-width="2.0" stroke-linecap="round" stroke-dasharray="5 4"/><polygon points="676.00,208.00 669.18,219.00 682.82,219.00" fill="none" stroke="#4C6B8A" stroke-width="1.5" stroke-linejoin="round"/><line x1="659.00" y1="219.00" x2="693.00" y2="219.00" stroke="#4C6B8A" stroke-width="1.6" stroke-linecap="round"/><line x1="662.40" y1="219.00" x2="657.50" y2="226.00" stroke="#4C6B8A" stroke-width="1.0" stroke-linecap="round"/><line x1="669.20" y1="219.00" x2="664.30" y2="226.00" stroke="#4C6B8A" stroke-width="1.0" stroke-linecap="round"/><line x1="676.00" y1="219.00" x2="671.10" y2="226.00" stroke="#4C6B8A" stroke-width="1.0" stroke-linecap="round"/><line x1="682.80" y1="219.00" x2="677.90" y2="226.00" stroke="#4C6B8A" stroke-width="1.0" stroke-linecap="round"/><line x1="689.60" y1="219.00" x2="684.70" y2="226.00" stroke="#4C6B8A" stroke-width="1.0" stroke-linecap="round"/><polygon points="924.00,208.00 917.18,216.80 930.82,216.80" fill="none" stroke="#4C6B8A" stroke-width="1.5" stroke-linejoin="round"/><circle cx="919.82" cy="220.00" r="3.20" fill="none" stroke="#4C6B8A" stroke-width="1.2"/><circle cx="928.18" cy="220.00" r="3.20" fill="none" stroke="#4C6B8A" stroke-width="1.2"/><line x1="907.00" y1="223.40" x2="941.00" y2="223.40" stroke="#4C6B8A" stroke-width="1.6" stroke-linecap="round"/><line x1="910.40" y1="223.40" x2="905.50" y2="230.40" stroke="#4C6B8A" stroke-width="1.0" stroke-linecap="round"/><line x1="917.20" y1="223.40" x2="912.30" y2="230.40" stroke="#4C6B8A" stroke-width="1.0" stroke-linecap="round"/><line x1="924.00" y1="223.40" x2="919.10" y2="230.40" stroke="#4C6B8A" stroke-width="1.0" stroke-linecap="round"/><line x1="930.80" y1="223.40" x2="925.90" y2="230.40" stroke="#4C6B8A" stroke-width="1.0" stroke-linecap="round"/><line x1="937.60" y1="223.40" x2="932.70" y2="230.40" stroke="#4C6B8A" stroke-width="1.0" stroke-linecap="round"/><text x="676.00" y="252.00" font-family="Noto Sans CJK TC, Noto Sans CJK JP, sans-serif" font-size="11" fill="#1B2A41" text-anchor="middle" font-weight="normal">A</text><text x="924.00" y="252.00" font-family="Noto Sans CJK TC, Noto Sans CJK JP, sans-serif" font-size="11" fill="#1B2A41" text-anchor="middle" font-weight="normal">B</text><path d="M 676.00,208.00 L 775.20,176.00 L 775.20,176.00 L 924.00,208.00" fill="none" stroke="#E8734A" stroke-width="3.0" stroke-linecap="round" stroke-linejoin="round"/><circle cx="775.20" cy="176.00" r="5.00" fill="#FFFFFF" stroke="#E8734A" stroke-width="2.0"/><path d="M 758.42,200.92 A 19.00,19.00 0 0 0 791.98,200.92" fill="none" stroke="#C0392B" stroke-width="1.6" marker-end="url(#arC0392B7)"/><text x="775.20" y="162.00" font-family="Noto Sans CJK TC, Noto Sans CJK JP, sans-serif" font-size="11.5" fill="#C0392B" text-anchor="middle" font-weight="bold">θ = 1 rad</text><text x="775.20" y="252.00" font-family="Noto Sans CJK TC, Noto Sans CJK JP, sans-serif" font-size="11" fill="#E8734A" text-anchor="middle" font-weight="bold">C</text><rect x="662.00" y="272.00" width="276.00" height="128.00" rx="5" fill="#F4F6F9" stroke="#4C6B8A" stroke-width="1.1"/><rect x="662.00" y="272.00" width="4.00" height="128.00" rx="0" fill="#4C6B8A"/><text x="674.00" y="291.00" font-family="Noto Sans CJK TC, Noto Sans CJK JP, sans-serif" font-size="12.5" fill="#4C6B8A" text-anchor="start" font-weight="bold">特徵</text><text x="674.00" y="310.00" font-family="Noto Sans CJK TC, Noto Sans CJK JP, sans-serif" font-size="11.3" fill="#1B2A41" text-anchor="start" font-weight="normal">拆法：插入鉸，相對轉角 1 rad</text><text x="674.00" y="326.95" font-family="Noto Sans CJK TC, Noto Sans CJK JP, sans-serif" font-size="11.3" fill="#1B2A41" text-anchor="start" font-weight="normal">斷面處有折點，但曲線連續</text><text x="674.00" y="343.90" font-family="Noto Sans CJK TC, Noto Sans CJK JP, sans-serif" font-size="11.3" fill="#1B2A41" text-anchor="start" font-weight="normal">峰值 = ab/L，帶長度單位 m</text><text x="674.00" y="360.85" font-family="Noto Sans CJK TC, Noto Sans CJK JP, sans-serif" font-size="11.3" fill="#1B2A41" text-anchor="start" font-weight="normal">跨中最大 = L/4</text><line x1="50.00" y1="517.69" x2="310.00" y2="517.69" stroke="#4C6B8A" stroke-width="1.4" stroke-linecap="round"/><line x1="56.00" y1="513.69" x2="56.00" y2="521.69" stroke="#4C6B8A" stroke-width="1.1" stroke-linecap="round"/><text x="56.00" y="534.69" font-family="Noto Sans CJK TC, Noto Sans CJK JP, sans-serif" font-size="10.5" fill="#4C6B8A" text-anchor="middle" font-weight="normal">A</text><line x1="304.00" y1="513.69" x2="304.00" y2="521.69" stroke="#4C6B8A" stroke-width="1.1" stroke-linecap="round"/><text x="304.00" y="534.69" font-family="Noto Sans CJK TC, Noto Sans CJK JP, sans-serif" font-size="10.5" fill="#4C6B8A" text-anchor="middle" font-weight="normal">B</text><polygon points="56.00,517.69 56.00,517.69 304.00,462.31 304.00,517.69" fill="#E8734A22" stroke="#E8734A" stroke-width="2.0" stroke-linejoin="round"/><text x="304.00" y="455.31" font-family="Noto Sans CJK TC, Noto Sans CJK JP, sans-serif" font-size="11" fill="#E8734A" text-anchor="end" font-weight="bold">1.00</text><text x="56.00" y="434.00" font-family="Noto Sans CJK TC, Noto Sans CJK JP, sans-serif" font-size="11" fill="#5C7A99" text-anchor="start" font-weight="normal">→ 影響線</text><line x1="360.00" y1="502.71" x2="620.00" y2="502.71" stroke="#4C6B8A" stroke-width="1.4" stroke-linecap="round"/><line x1="366.00" y1="498.71" x2="366.00" y2="506.71" stroke="#4C6B8A" stroke-width="1.1" stroke-linecap="round"/><text x="366.00" y="519.71" font-family="Noto Sans CJK TC, Noto Sans CJK JP, sans-serif" font-size="10.5" fill="#4C6B8A" text-anchor="middle" font-weight="normal">A</text><line x1="465.20" y1="498.71" x2="465.20" y2="506.71" stroke="#4C6B8A" stroke-width="1.1" stroke-linecap="round"/><text x="465.20" y="519.71" font-family="Noto Sans CJK TC, Noto Sans CJK JP, sans-serif" font-size="10.5" fill="#4C6B8A" text-anchor="middle" font-weight="normal">C</text><line x1="614.00" y1="498.71" x2="614.00" y2="506.71" stroke="#4C6B8A" stroke-width="1.1" stroke-linecap="round"/><text x="614.00" y="519.71" font-family="Noto Sans CJK TC, Noto Sans CJK JP, sans-serif" font-size="10.5" fill="#4C6B8A" text-anchor="middle" font-weight="normal">B</text><polygon points="366.00,502.71 366.00,502.71 465.20,519.65 465.20,502.71" fill="#4C6B8A22" stroke="#E8734A" stroke-width="2.0" stroke-linejoin="round"/><polygon points="465.20,502.71 465.20,477.29 614.00,502.71 614.00,502.71" fill="#E8734A22" stroke="#E8734A" stroke-width="2.0" stroke-linejoin="round"/><text x="465.20" y="534.65" font-family="Noto Sans CJK TC, Noto Sans CJK JP, sans-serif" font-size="11" fill="#E8734A" text-anchor="middle" font-weight="bold">−0.4</text><text x="465.20" y="470.29" font-family="Noto Sans CJK TC, Noto Sans CJK JP, sans-serif" font-size="11" fill="#E8734A" text-anchor="middle" font-weight="bold">+0.6</text><text x="366.00" y="434.00" font-family="Noto Sans CJK TC, Noto Sans CJK JP, sans-serif" font-size="11" fill="#5C7A99" text-anchor="start" font-weight="normal">→ 影響線</text><line x1="670.00" y1="518.25" x2="930.00" y2="518.25" stroke="#4C6B8A" stroke-width="1.4" stroke-linecap="round"/><line x1="676.00" y1="514.25" x2="676.00" y2="522.25" stroke="#4C6B8A" stroke-width="1.1" stroke-linecap="round"/><text x="676.00" y="535.25" font-family="Noto Sans CJK TC, Noto Sans CJK JP, sans-serif" font-size="10.5" fill="#4C6B8A" text-anchor="middle" font-weight="normal">A</text><line x1="775.20" y1="514.25" x2="775.20" y2="522.25" stroke="#4C6B8A" stroke-width="1.1" stroke-linecap="round"/><text x="775.20" y="535.25" font-family="Noto Sans CJK TC, Noto Sans CJK JP, sans-serif" font-size="10.5" fill="#4C6B8A" text-anchor="middle" font-weight="normal">C</text><line x1="924.00" y1="514.25" x2="924.00" y2="522.25" stroke="#4C6B8A" stroke-width="1.1" stroke-linecap="round"/><text x="924.00" y="535.25" font-family="Noto Sans CJK TC, Noto Sans CJK JP, sans-serif" font-size="10.5" fill="#4C6B8A" text-anchor="middle" font-weight="normal">B</text><polygon points="676.00,518.25 676.00,518.25 775.20,465.08 924.00,518.25 924.00,518.25" fill="#E8734A22" stroke="#E8734A" stroke-width="2.0" stroke-linejoin="round"/><text x="775.20" y="458.08" font-family="Noto Sans CJK TC, Noto Sans CJK JP, sans-serif" font-size="11" fill="#E8734A" text-anchor="middle" font-weight="bold">2.4 m</text><text x="676.00" y="434.00" font-family="Noto Sans CJK TC, Noto Sans CJK JP, sans-serif" font-size="11" fill="#5C7A99" text-anchor="start" font-weight="normal">→ 影響線</text><rect x="26.00" y="562.00" width="928.00" height="54.00" rx="5" fill="#1B2A41"/><text x="490.00" y="589.50" font-family="Noto Sans CJK TC, Noto Sans CJK JP, sans-serif" font-size="13.5" fill="#FFFFFF" text-anchor="middle" font-weight="bold" dominant-baseline="middle">物理根源是貝蒂互換定理：把「無數次移動載重」壓縮成「一次單位位移下的撓曲線」。所以定性繪圖完全不必逐點解結構。</text><line x1="26.00" y1="659.00" x2="954.00" y2="659.00" stroke="#DFE6EE" stroke-width="1.0" stroke-linecap="round"/><text x="26.00" y="676.00" font-family="Noto Sans CJK TC, Noto Sans CJK JP, sans-serif" font-size="11.5" fill="#5C7A99" text-anchor="start" font-weight="normal" font-style="italic">SA-U1-3 靜定及靜不定結構影響線｜圖解 2／11</text></svg>