<svg xmlns="http://www.w3.org/2000/svg" width="770" height="410" viewBox="0 0 770 410"><rect width="770" height="410" fill="#FFFFFF"/><line x1="140.00" y1="302.00" x2="140.00" y2="117.00" stroke="#9AA4B2" stroke-width="7.0" stroke-linecap="butt" opacity="1.0"/><line x1="140.00" y1="117.00" x2="325.00" y2="117.00" stroke="#9AA4B2" stroke-width="7.0" stroke-linecap="butt" opacity="1.0"/><line x1="325.00" y1="117.00" x2="325.00" y2="302.00" stroke="#9AA4B2" stroke-width="7.0" stroke-linecap="butt" opacity="1.0"/><line x1="120.00" y1="302.00" x2="160.00" y2="302.00" stroke="#3F4A5A" stroke-width="3.2" stroke-linecap="round"/><line x1="121.40" y1="302.00" x2="114.40" y2="310.00" stroke="#3F4A5A" stroke-width="1.8" stroke-linecap="round"/><line x1="130.70" y1="302.00" x2="123.70" y2="310.00" stroke="#3F4A5A" stroke-width="1.8" stroke-linecap="round"/><line x1="140.00" y1="302.00" x2="133.00" y2="310.00" stroke="#3F4A5A" stroke-width="1.8" stroke-linecap="round"/><line x1="149.30" y1="302.00" x2="142.30" y2="310.00" stroke="#3F4A5A" stroke-width="1.8" stroke-linecap="round"/><line x1="158.60" y1="302.00" x2="151.60" y2="310.00" stroke="#3F4A5A" stroke-width="1.8" stroke-linecap="round"/><line x1="305.00" y1="302.00" x2="345.00" y2="302.00" stroke="#3F4A5A" stroke-width="3.2" stroke-linecap="round"/><line x1="306.40" y1="302.00" x2="299.40" y2="310.00" stroke="#3F4A5A" stroke-width="1.8" stroke-linecap="round"/><line x1="315.70" y1="302.00" x2="308.70" y2="310.00" stroke="#3F4A5A" stroke-width="1.8" stroke-linecap="round"/><line x1="325.00" y1="302.00" x2="318.00" y2="310.00" stroke="#3F4A5A" stroke-width="1.8" stroke-linecap="round"/><line x1="334.30" y1="302.00" x2="327.30" y2="310.00" stroke="#3F4A5A" stroke-width="1.8" stroke-linecap="round"/><line x1="343.60" y1="302.00" x2="336.60" y2="310.00" stroke="#3F4A5A" stroke-width="1.8" stroke-linecap="round"/><line x1="337.95" y1="117.00" x2="390.70" y2="117.00" stroke="#1D4ED8" stroke-width="3.4" stroke-linecap="round"/><polygon points="402.70,117.00 390.70,122.52 390.70,111.48" fill="#1D4ED8"/><text x="411.70" y="117.00" font-family="'Latin Modern Math','Cambria Math','Times New Roman',serif" font-size="20" fill="#1D4ED8" text-anchor="start" dominant-baseline="middle" font-weight="700" font-style="italic">Δ</text><path d="M 114.62 128.83 A 28 28 0 1 1 164.25 131.00" fill="none" stroke="#B45309" stroke-width="2.8" stroke-linecap="round"/><polygon points="164.25,131.00 165.26,120.04 173.23,124.64" fill="#B45309"/><text x="85.7008" y="107" font-family="'Latin Modern Math','Cambria Math','Times New Roman',serif" font-size="19" fill="#B45309" text-anchor="start" dominant-baseline="middle" font-weight="700" font-style="italic">θ<tspan dy="5.70" font-size="12.92">B</tspan></text><path d="M 299.62 128.83 A 28 28 0 1 1 349.25 131.00" fill="none" stroke="#B45309" stroke-width="2.8" stroke-linecap="round"/><polygon points="349.25,131.00 350.26,120.04 358.23,124.64" fill="#B45309"/><text x="356.7008" y="141" font-family="'Latin Modern Math','Cambria Math','Times New Roman',serif" font-size="19" fill="#B45309" text-anchor="start" dominant-baseline="middle" font-weight="700" font-style="italic">θ<tspan dy="5.70" font-size="12.92">C</tspan></text><line x1="140.00" y1="94.80" x2="140.00" y2="69.50" stroke="#D6AEA6" stroke-width="2.4" stroke-linecap="round"/><polygon points="140.00,61.50 143.68,69.50 136.32,69.50" fill="#D6AEA6"/><line x1="149" y1="70.14999999999998" x2="165" y2="86.14999999999998" stroke="#C0392B" stroke-width="2.6" stroke-linecap="round"/><line x1="149" y1="86.14999999999998" x2="165" y2="70.14999999999998" stroke="#C0392B" stroke-width="2.6" stroke-linecap="round"/><line x1="325.00" y1="94.80" x2="325.00" y2="69.50" stroke="#D6AEA6" stroke-width="2.4" stroke-linecap="round"/><polygon points="325.00,61.50 328.68,69.50 321.32,69.50" fill="#D6AEA6"/><line x1="334" y1="70.14999999999998" x2="350" y2="86.14999999999998" stroke="#C0392B" stroke-width="2.6" stroke-linecap="round"/><line x1="334" y1="86.14999999999998" x2="350" y2="70.14999999999998" stroke="#C0392B" stroke-width="2.6" stroke-linecap="round"/><circle cx="140.00" cy="302.00" r="5.5" fill="#4A5568" stroke="#FFFFFF" stroke-width="1.6"/><text x="122.00" y="319.00" font-family="'Noto Sans CJK TC','Microsoft JhengHei','PingFang TC',sans-serif" font-size="16" fill="#1F2733" text-anchor="middle" dominant-baseline="middle" font-weight="700">A</text><circle cx="140.00" cy="117.00" r="5.5" fill="#4A5568" stroke="#FFFFFF" stroke-width="1.6"/><text x="160.00" y="137.00" font-family="'Noto Sans CJK TC','Microsoft JhengHei','PingFang TC',sans-serif" font-size="16" fill="#1F2733" text-anchor="middle" dominant-baseline="middle" font-weight="700">B</text><circle cx="325.00" cy="117.00" r="5.5" fill="#4A5568" stroke="#FFFFFF" stroke-width="1.6"/><text x="305.00" y="137.00" font-family="'Noto Sans CJK TC','Microsoft JhengHei','PingFang TC',sans-serif" font-size="16" fill="#1F2733" text-anchor="middle" dominant-baseline="middle" font-weight="700">C</text><circle cx="325.00" cy="302.00" r="5.5" fill="#4A5568" stroke="#FFFFFF" stroke-width="1.6"/><text x="343.00" y="319.00" font-family="'Noto Sans CJK TC','Microsoft JhengHei','PingFang TC',sans-serif" font-size="16" fill="#1F2733" text-anchor="middle" dominant-baseline="middle" font-weight="700">D</text><rect x="478" y="92" width="274" height="74" rx="12" fill="#EEF4FF" stroke="#C7D9F5" stroke-width="1.3"/><text x="615" y="116" font-family="'Noto Sans CJK TC','Microsoft JhengHei','PingFang TC',sans-serif" font-size="14.5" fill="#1D4ED8" text-anchor="middle" dominant-baseline="middle" font-weight="700">有效自由度只剩 3 個</text><text x="552.4216" y="144" font-family="'Latin Modern Math','Cambria Math','Times New Roman',serif" font-size="19" fill="#1D4ED8" text-anchor="start" dominant-baseline="middle" font-weight="400" font-style="italic">{ θ<tspan dy="5.70" font-size="12.92">B</tspan><tspan dy="-5.70" font-size="19"> ,  θ</tspan><tspan dy="5.70" font-size="12.92">C</tspan><tspan dy="-5.70" font-size="19"> ,  Δ }</tspan></text><rect x="478" y="196" width="274" height="106" rx="12" fill="#FFF6F1" stroke="#F0C9B8" stroke-width="1.3"/><text x="496" y="222" font-family="'Noto Sans CJK TC','Microsoft JhengHei','PingFang TC',sans-serif" font-size="13.5" fill="#9A3412" text-anchor="start" dominant-baseline="middle" font-weight="700">被消去的自由度</text><line x1="498" y1="242" x2="510" y2="254" stroke="#C0392B" stroke-width="2.6" stroke-linecap="round"/><line x1="498" y1="254" x2="510" y2="242" stroke="#C0392B" stroke-width="2.6" stroke-linecap="round"/><text x="518" y="248" font-family="'Noto Sans CJK TC','Microsoft JhengHei','PingFang TC',sans-serif" font-size="12.5" fill="#9A3412" text-anchor="start" dominant-baseline="middle" font-weight="400">柱不縮短 → B、C 垂直位移 = 0</text><line x1="498" y1="264" x2="510" y2="276" stroke="#C0392B" stroke-width="2.6" stroke-linecap="round"/><line x1="498" y1="276" x2="510" y2="264" stroke="#C0392B" stroke-width="2.6" stroke-linecap="round"/><text x="518" y="270" font-family="'Noto Sans CJK TC','Microsoft JhengHei','PingFang TC',sans-serif" font-size="12.5" fill="#9A3412" text-anchor="start" dominant-baseline="middle" font-weight="400">梁不伸縮 → B、C 水平位移相同</text><line x1="498" y1="286" x2="510" y2="298" stroke="#C0392B" stroke-width="2.6" stroke-linecap="round"/><line x1="498" y1="298" x2="510" y2="286" stroke="#C0392B" stroke-width="2.6" stroke-linecap="round"/><text x="518" y="292" font-family="'Noto Sans CJK TC','Microsoft JhengHei','PingFang TC',sans-serif" font-size="12.5" fill="#9A3412" text-anchor="start" dominant-baseline="middle" font-weight="400">柱底全固定 → 不貢獻自由度</text><text x="385" y="386" font-family="'Noto Sans CJK TC','Microsoft JhengHei','PingFang TC',sans-serif" font-size="13.5" fill="#6B7684" text-anchor="middle" dominant-baseline="middle" font-weight="400">自由度數目 = 勁度矩陣階數。這一步錯，後面整個矩陣都白算。</text></svg>