<svg xmlns="http://www.w3.org/2000/svg" width="1020" height="400" viewBox="0 0 1020 400"><rect width="1020" height="400" fill="#FFFFFF"/><text x="510.0" y="32" font-family="'Noto Sans CJK TC','Microsoft JhengHei','PingFang TC',sans-serif" font-size="17.5" fill="#1F2733" text-anchor="middle" dominant-baseline="middle" font-weight="700">靜態凝縮做了什麼？——梁的束縛能力決定側向勁度折減多少</text><text x="316.3832" y="57" font-family="'Noto Sans CJK TC','Microsoft JhengHei','PingFang TC',sans-serif" font-size="13" fill="#6B7684" text-anchor="start" dominant-baseline="middle" font-weight="400">旋轉自由度被凝縮掉，代價就是 K<tspan dy="3.90" font-size="8.84">33</tspan><tspan dy="-3.90" font-size="13"> 被扣掉一項；梁越軟，扣得越多</tspan></text><g transform="translate(20,84)"><line x1="32.00" y1="60.00" x2="32.00" y2="16.00" stroke="#C3CAD5" stroke-width="2.2" stroke-linecap="butt" stroke-dasharray="4 4" opacity="1.0"/><line x1="32.00" y1="16.00" x2="76.00" y2="16.00" stroke="#C3CAD5" stroke-width="2.2" stroke-linecap="butt" stroke-dasharray="4 4" opacity="1.0"/><line x1="76.00" y1="16.00" x2="76.00" y2="60.00" stroke="#C3CAD5" stroke-width="2.2" stroke-linecap="butt" stroke-dasharray="4 4" opacity="1.0"/><polyline points="32.00,60.00 32.01,59.27 32.04,58.53 32.10,57.80 32.17,57.07 32.26,56.33 32.37,55.60 32.50,54.87 32.64,54.13 32.80,53.40 32.98,52.67 33.17,51.93 33.37,51.20 33.59,50.47 33.82,49.73 34.06,49.00 34.32,48.27 34.58,47.53 34.85,46.80 35.13,46.07 35.42,45.33 35.72,44.60 36.02,43.87 36.33,43.13 36.65,42.40 36.97,41.67 37.29,40.93 37.61,40.20 37.94,39.47 38.27,38.73 38.60,38.00 38.93,37.27 39.26,36.53 39.59,35.80 39.91,35.07 40.23,34.33 40.55,33.60 40.87,32.87 41.18,32.13 41.48,31.40 41.78,30.67 42.07,29.93 42.35,29.20 42.62,28.47 42.88,27.73 43.14,27.00 43.38,26.27 43.61,25.53 43.83,24.80 44.03,24.07 44.22,23.33 44.40,22.60 44.56,21.87 44.70,21.13 44.83,20.40 44.94,19.67 45.03,18.93 45.10,18.20 45.16,17.47 45.19,16.73 45.20,16.00" fill="none" stroke="#1D4ED8" stroke-width="3.2" stroke-linecap="round" stroke-linejoin="round" opacity="1.0"/><polyline points="76.00,60.00 76.01,59.27 76.04,58.53 76.10,57.80 76.17,57.07 76.26,56.33 76.37,55.60 76.50,54.87 76.64,54.13 76.80,53.40 76.98,52.67 77.17,51.93 77.37,51.20 77.59,50.47 77.82,49.73 78.06,49.00 78.32,48.27 78.58,47.53 78.85,46.80 79.13,46.07 79.42,45.33 79.72,44.60 80.02,43.87 80.33,43.13 80.65,42.40 80.97,41.67 81.29,40.93 81.61,40.20 81.94,39.47 82.27,38.73 82.60,38.00 82.93,37.27 83.26,36.53 83.59,35.80 83.91,35.07 84.23,34.33 84.55,33.60 84.87,32.87 85.18,32.13 85.48,31.40 85.78,30.67 86.07,29.93 86.35,29.20 86.62,28.47 86.88,27.73 87.14,27.00 87.38,26.27 87.61,25.53 87.83,24.80 88.03,24.07 88.22,23.33 88.40,22.60 88.56,21.87 88.70,21.13 88.83,20.40 88.94,19.67 89.03,18.93 89.10,18.20 89.16,17.47 89.19,16.73 89.20,16.00" fill="none" stroke="#1D4ED8" stroke-width="3.2" stroke-linecap="round" stroke-linejoin="round" opacity="1.0"/><polyline points="45.20,16.00 45.93,16.00 46.67,16.00 47.40,16.00 48.13,16.00 48.87,16.00 49.60,16.00 50.33,16.00 51.07,16.00 51.80,16.00 52.53,16.00 53.27,16.00 54.00,16.00 54.73,16.00 55.47,16.00 56.20,16.00 56.93,16.00 57.67,16.00 58.40,16.00 59.13,16.00 59.87,16.00 60.60,16.00 61.33,16.00 62.07,16.00 62.80,16.00 63.53,16.00 64.27,16.00 65.00,16.00 65.73,16.00 66.47,16.00 67.20,16.00 67.93,16.00 68.67,16.00 69.40,16.00 70.13,16.00 70.87,16.00 71.60,16.00 72.33,16.00 73.07,16.00 73.80,16.00 74.53,16.00 75.27,16.00 76.00,16.00 76.73,16.00 77.47,16.00 78.20,16.00 78.93,16.00 79.67,16.00 80.40,16.00 81.13,16.00 81.87,16.00 82.60,16.00 83.33,16.00 84.07,16.00 84.80,16.00 85.53,16.00 86.27,16.00 87.00,16.00 87.73,16.00 88.47,16.00 89.20,16.00" fill="none" stroke="#1D4ED8" stroke-width="3.2" stroke-linecap="round" stroke-linejoin="round" opacity="1.0"/></g><text x="150" y="113" font-family="'Noto Sans CJK TC','Microsoft JhengHei','PingFang TC',sans-serif" font-size="14" fill="#1F2733" text-anchor="start" dominant-baseline="middle" font-weight="700">梁無限剛　EI<tspan dy="4.20" font-size="9.52">b</tspan><tspan dy="-4.20" font-size="14"> → ∞</tspan></text><text x="150" y="136" font-family="'Noto Sans CJK TC','Microsoft JhengHei','PingFang TC',sans-serif" font-size="12.5" fill="#6B7684" text-anchor="start" dominant-baseline="middle" font-weight="400">θ<tspan dy="3.75" font-size="8.5">B</tspan><tspan dy="-3.75" font-size="12.5"> = θ</tspan><tspan dy="3.75" font-size="8.5">C</tspan><tspan dy="-3.75" font-size="12.5"> = 0</tspan></text><rect x="320" y="105" width="400" height="34" rx="8" fill="#EDF1F6" stroke="none" stroke-width="1"/><rect x="320" y="105" width="400.0" height="34" rx="8" fill="#1D4ED8" stroke="none" stroke-width="1"/><text x="706.0" y="122" font-family="'Noto Sans CJK TC','Microsoft JhengHei','PingFang TC',sans-serif" font-size="14" fill="#FFFFFF" text-anchor="end" dominant-baseline="middle" font-weight="700">100%</text><text x="736" y="122" font-family="'Latin Modern Math','Cambria Math','Times New Roman',serif" font-size="14.5" fill="#1D4ED8" text-anchor="start" dominant-baseline="middle" font-weight="700" font-style="italic">24EI/L<tspan dy="-5.80" font-size="9.86">3</tspan></text><g transform="translate(20,170)"><line x1="32.00" y1="60.00" x2="32.00" y2="16.00" stroke="#C3CAD5" stroke-width="2.2" stroke-linecap="butt" stroke-dasharray="4 4" opacity="1.0"/><line x1="32.00" y1="16.00" x2="76.00" y2="16.00" stroke="#C3CAD5" stroke-width="2.2" stroke-linecap="butt" stroke-dasharray="4 4" opacity="1.0"/><line x1="76.00" y1="16.00" x2="76.00" y2="60.00" stroke="#C3CAD5" stroke-width="2.2" stroke-linecap="butt" stroke-dasharray="4 4" opacity="1.0"/><polyline points="32.00,60.00 32.01,59.27 32.03,58.53 32.08,57.80 32.14,57.07 32.21,56.33 32.30,55.60 32.40,54.87 32.52,54.13 32.65,53.40 32.79,52.67 32.95,51.93 33.12,51.20 33.30,50.47 33.49,49.73 33.69,49.00 33.90,48.27 34.12,47.53 34.35,46.80 34.59,46.07 34.84,45.33 35.09,44.60 35.35,43.87 35.61,43.13 35.89,42.40 36.16,41.67 36.45,40.93 36.73,40.20 37.02,39.47 37.31,38.73 37.61,38.00 37.91,37.27 38.21,36.53 38.51,35.80 38.81,35.07 39.11,34.33 39.41,33.60 39.71,32.87 40.01,32.13 40.31,31.40 40.60,30.67 40.90,29.93 41.18,29.20 41.47,28.47 41.75,27.73 42.02,27.00 42.29,26.27 42.56,25.53 42.81,24.80 43.06,24.07 43.31,23.33 43.54,22.60 43.77,21.87 43.98,21.13 44.19,20.40 44.39,19.67 44.57,18.93 44.75,18.20 44.91,17.47 45.06,16.73 45.20,16.00" fill="none" stroke="#B45309" stroke-width="3.2" stroke-linecap="round" stroke-linejoin="round" opacity="1.0"/><polyline points="76.00,60.00 76.01,59.27 76.03,58.53 76.08,57.80 76.14,57.07 76.21,56.33 76.30,55.60 76.40,54.87 76.52,54.13 76.65,53.40 76.79,52.67 76.95,51.93 77.12,51.20 77.30,50.47 77.49,49.73 77.69,49.00 77.90,48.27 78.12,47.53 78.35,46.80 78.59,46.07 78.84,45.33 79.09,44.60 79.35,43.87 79.61,43.13 79.89,42.40 80.16,41.67 80.45,40.93 80.73,40.20 81.02,39.47 81.31,38.73 81.61,38.00 81.91,37.27 82.21,36.53 82.51,35.80 82.81,35.07 83.11,34.33 83.41,33.60 83.71,32.87 84.01,32.13 84.31,31.40 84.60,30.67 84.90,29.93 85.18,29.20 85.47,28.47 85.75,27.73 86.02,27.00 86.29,26.27 86.56,25.53 86.81,24.80 87.06,24.07 87.31,23.33 87.54,22.60 87.77,21.87 87.98,21.13 88.19,20.40 88.39,19.67 88.57,18.93 88.75,18.20 88.91,17.47 89.06,16.73 89.20,16.00" fill="none" stroke="#B45309" stroke-width="3.2" stroke-linecap="round" stroke-linejoin="round" opacity="1.0"/><polyline points="45.20,16.00 45.93,16.13 46.67,16.24 47.40,16.34 48.13,16.43 48.87,16.50 49.60,16.57 50.33,16.63 51.07,16.67 51.80,16.71 52.53,16.73 53.27,16.75 54.00,16.76 54.73,16.76 55.47,16.76 56.20,16.74 56.93,16.72 57.67,16.70 58.40,16.67 59.13,16.63 59.87,16.59 60.60,16.54 61.33,16.49 62.07,16.44 62.80,16.38 63.53,16.32 64.27,16.26 65.00,16.20 65.73,16.13 66.47,16.07 67.20,16.00 67.93,15.93 68.67,15.87 69.40,15.80 70.13,15.74 70.87,15.68 71.60,15.62 72.33,15.56 73.07,15.51 73.80,15.46 74.53,15.41 75.27,15.37 76.00,15.33 76.73,15.30 77.47,15.28 78.20,15.26 78.93,15.24 79.67,15.24 80.40,15.24 81.13,15.25 81.87,15.27 82.60,15.29 83.33,15.33 84.07,15.37 84.80,15.43 85.53,15.50 86.27,15.57 87.00,15.66 87.73,15.76 88.47,15.87 89.20,16.00" fill="none" stroke="#B45309" stroke-width="3.2" stroke-linecap="round" stroke-linejoin="round" opacity="1.0"/></g><text x="150" y="199" font-family="'Noto Sans CJK TC','Microsoft JhengHei','PingFang TC',sans-serif" font-size="14" fill="#1F2733" text-anchor="start" dominant-baseline="middle" font-weight="700">本題　梁柱同 EI/L</text><text x="150" y="222" font-family="'Noto Sans CJK TC','Microsoft JhengHei','PingFang TC',sans-serif" font-size="12.5" fill="#6B7684" text-anchor="start" dominant-baseline="middle" font-weight="400">θ = 3Δ/5L</text><rect x="320" y="191" width="400" height="34" rx="8" fill="#EDF1F6" stroke="none" stroke-width="1"/><rect x="320" y="191" width="280.0" height="34" rx="8" fill="#B45309" stroke="none" stroke-width="1"/><text x="586.0" y="208" font-family="'Noto Sans CJK TC','Microsoft JhengHei','PingFang TC',sans-serif" font-size="14" fill="#FFFFFF" text-anchor="end" dominant-baseline="middle" font-weight="700">70%</text><text x="736" y="208" font-family="'Latin Modern Math','Cambria Math','Times New Roman',serif" font-size="14.5" fill="#B45309" text-anchor="start" dominant-baseline="middle" font-weight="700" font-style="italic">84EI/5L<tspan dy="-5.80" font-size="9.86">3</tspan><tspan dy="5.80" font-size="14.5"> = 16.8EI/L</tspan><tspan dy="-5.80" font-size="9.86">3</tspan></text><g transform="translate(20,256)"><line x1="32.00" y1="60.00" x2="32.00" y2="16.00" stroke="#C3CAD5" stroke-width="2.2" stroke-linecap="butt" stroke-dasharray="4 4" opacity="1.0"/><line x1="32.00" y1="16.00" x2="76.00" y2="16.00" stroke="#C3CAD5" stroke-width="2.2" stroke-linecap="butt" stroke-dasharray="4 4" opacity="1.0"/><line x1="76.00" y1="16.00" x2="76.00" y2="60.00" stroke="#C3CAD5" stroke-width="2.2" stroke-linecap="butt" stroke-dasharray="4 4" opacity="1.0"/><polyline points="32.00,60.00 32.01,59.27 32.02,58.53 32.05,57.80 32.09,57.07 32.13,56.33 32.19,55.60 32.26,54.87 32.34,54.13 32.42,53.40 32.52,52.67 32.62,51.93 32.74,51.20 32.86,50.47 32.99,49.73 33.13,49.00 33.28,48.27 33.44,47.53 33.60,46.80 33.78,46.07 33.96,45.33 34.14,44.60 34.34,43.87 34.54,43.13 34.75,42.40 34.96,41.67 35.18,40.93 35.41,40.20 35.64,39.47 35.88,38.73 36.12,38.00 36.38,37.27 36.63,36.53 36.89,35.80 37.16,35.07 37.43,34.33 37.70,33.60 37.98,32.87 38.27,32.13 38.55,31.40 38.84,30.67 39.14,29.93 39.44,29.20 39.74,28.47 40.05,27.73 40.35,27.00 40.66,26.27 40.98,25.53 41.29,24.80 41.61,24.07 41.93,23.33 42.25,22.60 42.58,21.87 42.90,21.13 43.23,20.40 43.55,19.67 43.88,18.93 44.21,18.20 44.54,17.47 44.87,16.73 45.20,16.00" fill="none" stroke="#94A3B8" stroke-width="3.2" stroke-linecap="round" stroke-linejoin="round" opacity="1.0"/><polyline points="76.00,60.00 76.01,59.27 76.02,58.53 76.05,57.80 76.09,57.07 76.13,56.33 76.19,55.60 76.26,54.87 76.34,54.13 76.42,53.40 76.52,52.67 76.62,51.93 76.74,51.20 76.86,50.47 76.99,49.73 77.13,49.00 77.28,48.27 77.44,47.53 77.60,46.80 77.78,46.07 77.96,45.33 78.14,44.60 78.34,43.87 78.54,43.13 78.75,42.40 78.96,41.67 79.18,40.93 79.41,40.20 79.64,39.47 79.88,38.73 80.12,38.00 80.38,37.27 80.63,36.53 80.89,35.80 81.16,35.07 81.43,34.33 81.70,33.60 81.98,32.87 82.27,32.13 82.55,31.40 82.84,30.67 83.14,29.93 83.44,29.20 83.74,28.47 84.05,27.73 84.35,27.00 84.66,26.27 84.98,25.53 85.29,24.80 85.61,24.07 85.93,23.33 86.25,22.60 86.58,21.87 86.90,21.13 87.23,20.40 87.55,19.67 87.88,18.93 88.21,18.20 88.54,17.47 88.87,16.73 89.20,16.00" fill="none" stroke="#94A3B8" stroke-width="3.2" stroke-linecap="round" stroke-linejoin="round" opacity="1.0"/><polyline points="45.20,16.00 45.93,16.31 46.67,16.60 47.40,16.85 48.13,17.07 48.87,17.26 49.60,17.43 50.33,17.56 51.07,17.68 51.80,17.77 52.53,17.83 53.27,17.88 54.00,17.90 54.73,17.90 55.47,17.89 56.20,17.86 56.93,17.81 57.67,17.74 58.40,17.66 59.13,17.57 59.87,17.47 60.60,17.35 61.33,17.23 62.07,17.09 62.80,16.95 63.53,16.80 64.27,16.65 65.00,16.49 65.73,16.33 66.47,16.16 67.20,16.00 67.93,15.84 68.67,15.67 69.40,15.51 70.13,15.35 70.87,15.20 71.60,15.05 72.33,14.91 73.07,14.77 73.80,14.65 74.53,14.53 75.27,14.43 76.00,14.34 76.73,14.26 77.47,14.19 78.20,14.14 78.93,14.11 79.67,14.10 80.40,14.10 81.13,14.12 81.87,14.17 82.60,14.23 83.33,14.32 84.07,14.44 84.80,14.57 85.53,14.74 86.27,14.93 87.00,15.15 87.73,15.40 88.47,15.69 89.20,16.00" fill="none" stroke="#94A3B8" stroke-width="3.2" stroke-linecap="round" stroke-linejoin="round" opacity="1.0"/></g><text x="150" y="285" font-family="'Noto Sans CJK TC','Microsoft JhengHei','PingFang TC',sans-serif" font-size="14" fill="#1F2733" text-anchor="start" dominant-baseline="middle" font-weight="700">梁無勁度　EI<tspan dy="4.20" font-size="9.52">b</tspan><tspan dy="-4.20" font-size="14"> → 0</tspan></text><text x="150" y="308" font-family="'Noto Sans CJK TC','Microsoft JhengHei','PingFang TC',sans-serif" font-size="12.5" fill="#6B7684" text-anchor="start" dominant-baseline="middle" font-weight="400">兩根獨立懸臂柱</text><rect x="320" y="277" width="400" height="34" rx="8" fill="#EDF1F6" stroke="none" stroke-width="1"/><rect x="320" y="277" width="100.0" height="34" rx="8" fill="#94A3B8" stroke="none" stroke-width="1"/><text x="406.0" y="294" font-family="'Noto Sans CJK TC','Microsoft JhengHei','PingFang TC',sans-serif" font-size="14" fill="#FFFFFF" text-anchor="end" dominant-baseline="middle" font-weight="700">25%</text><text x="736" y="294" font-family="'Latin Modern Math','Cambria Math','Times New Roman',serif" font-size="14.5" fill="#94A3B8" text-anchor="start" dominant-baseline="middle" font-weight="700" font-style="italic">6EI/L<tspan dy="-5.80" font-size="9.86">3</tspan></text><text x="266.5032" y="372" font-family="'Noto Sans CJK TC','Microsoft JhengHei','PingFang TC',sans-serif" font-size="13.5" fill="#6B7684" text-anchor="start" dominant-baseline="middle" font-weight="400">本題被扣掉的 −36EI/5L<tspan dy="-5.40" font-size="9.18">3</tspan><tspan dy="5.40" font-size="13.5"> 就是「節點被允許旋轉」所付的勁度代價，不是計算誤差</tspan></text></svg>