<svg xmlns="http://www.w3.org/2000/svg" width="1080" height="660" viewBox="0 0 1080 660"><rect width="1080" height="660" fill="#FFFFFF"/><rect x="6" y="6" width="1068" height="648" rx="14" fill="#F5F7FA" stroke="#E1E6ED" stroke-width="1.2"/><text x="540.00" y="32.00" font-family="'Noto Sans CJK TC','Noto Sans TC','Microsoft JhengHei','PingFang TC','Heiti TC',sans-serif" font-size="15.5" fill="#1F2733" text-anchor="middle" dominant-baseline="middle" font-weight="700">題目重繪（依考卷附圖逐像素判讀）</text><text x="540.00" y="55.00" font-family="'Noto Sans CJK TC','Noto Sans TC','Microsoft JhengHei','PingFang TC','Heiti TC',sans-serif" font-size="12.5" fill="#6B7684" text-anchor="middle" dominant-baseline="middle" font-weight="400">a 固定端　b 剛節點　c 滾支承（貼垂直牆，只束制水平、可自由轉動）　ab、bc 的 EI 相同，不考慮軸向變形</text><line x1="110.00" y1="150.00" x2="540.00" y2="150.00" stroke="#3F4A5A" stroke-width="7.0" stroke-linecap="butt" opacity="1.0"/><line x1="540.00" y1="150.00" x2="970.00" y2="472.50" stroke="#3F4A5A" stroke-width="7.0" stroke-linecap="butt" opacity="1.0"/><line x1="110.00" y1="130.00" x2="110.00" y2="170.00" stroke="#3F4A5A" stroke-width="3.2" stroke-linecap="round"/><line x1="110.00" y1="131.40" x2="102.00" y2="124.40" stroke="#3F4A5A" stroke-width="1.8" stroke-linecap="round"/><line x1="110.00" y1="140.70" x2="102.00" y2="133.70" stroke="#3F4A5A" stroke-width="1.8" stroke-linecap="round"/><line x1="110.00" y1="150.00" x2="102.00" y2="143.00" stroke="#3F4A5A" stroke-width="1.8" stroke-linecap="round"/><line x1="110.00" y1="159.30" x2="102.00" y2="152.30" stroke="#3F4A5A" stroke-width="1.8" stroke-linecap="round"/><line x1="110.00" y1="168.60" x2="102.00" y2="161.60" stroke="#3F4A5A" stroke-width="1.8" stroke-linecap="round"/><polygon points="970.00,472.50 989.55,484.74 989.55,460.26" fill="none" stroke="#3F4A5A" stroke-width="2.6" stroke-linejoin="round"/><circle cx="993.97" cy="479.64" r="4.42" fill="none" stroke="#3F4A5A" stroke-width="2"/><circle cx="993.97" cy="472.50" r="4.42" fill="none" stroke="#3F4A5A" stroke-width="2"/><circle cx="993.97" cy="465.36" r="4.42" fill="none" stroke="#3F4A5A" stroke-width="2"/><line x1="998.39" y1="493.75" x2="998.39" y2="451.25" stroke="#3F4A5A" stroke-width="2.6" stroke-linecap="round"/><line x1="998.39" y1="492.27" x2="1006.39" y2="499.27" stroke="#3F4A5A" stroke-width="1.8" stroke-linecap="round"/><line x1="998.39" y1="482.38" x2="1006.39" y2="489.38" stroke="#3F4A5A" stroke-width="1.8" stroke-linecap="round"/><line x1="998.39" y1="472.50" x2="1006.39" y2="479.50" stroke="#3F4A5A" stroke-width="1.8" stroke-linecap="round"/><line x1="998.39" y1="462.62" x2="1006.39" y2="469.62" stroke="#3F4A5A" stroke-width="1.8" stroke-linecap="round"/><line x1="998.39" y1="452.73" x2="1006.39" y2="459.73" stroke="#3F4A5A" stroke-width="1.8" stroke-linecap="round"/><text x="130.00" y="130.00" font-family="'Noto Sans CJK TC','Noto Sans TC','Microsoft JhengHei','PingFang TC','Heiti TC',sans-serif" font-size="19" fill="#1F2733" text-anchor="start" dominant-baseline="middle" font-weight="700" font-style="italic">a</text><text x="528.00" y="180.00" font-family="'Noto Sans CJK TC','Noto Sans TC','Microsoft JhengHei','PingFang TC','Heiti TC',sans-serif" font-size="19" fill="#1F2733" text-anchor="end" dominant-baseline="middle" font-weight="700" font-style="italic">b</text><text x="948.00" y="464.50" font-family="'Noto Sans CJK TC','Noto Sans TC','Microsoft JhengHei','PingFang TC','Heiti TC',sans-serif" font-size="19" fill="#1F2733" text-anchor="end" dominant-baseline="middle" font-weight="700" font-style="italic">c</text><line x1="755.00" y1="117.75" x2="755.00" y2="283.20" stroke="#C0392B" stroke-width="3.6" stroke-linecap="round"/><polygon points="755.00,296.20 749.02,283.20 760.98,283.20" fill="#C0392B"/><text x="755.00" y="99.75" font-family="'Noto Sans CJK TC','Noto Sans TC','Microsoft JhengHei','PingFang TC','Heiti TC',sans-serif" font-size="17" fill="#C0392B" text-anchor="middle" dominant-baseline="middle" font-weight="700">68 kN</text><circle cx="755.00" cy="311.25" r="6.0" fill="#C0392B" stroke="#FFFFFF" stroke-width="1.6"/><text x="775.00" y="317.25" font-family="'Noto Sans CJK TC','Noto Sans TC','Microsoft JhengHei','PingFang TC','Heiti TC',sans-serif" font-size="13.5" fill="#C0392B" text-anchor="start" dominant-baseline="middle" font-weight="700">作用在 bc 中點（不是節點 b）</text><text x="325.00" y="124.00" font-family="'Noto Sans CJK TC','Noto Sans TC','Microsoft JhengHei','PingFang TC','Heiti TC',sans-serif" font-size="14" fill="#2E7D6F" text-anchor="middle" dominant-baseline="middle" font-weight="700">ab：水平桿，長 4 m</text><text x="669.00" y="346.62" font-family="'Noto Sans CJK TC','Noto Sans TC','Microsoft JhengHei','PingFang TC','Heiti TC',sans-serif" font-size="14" fill="#2E7D6F" text-anchor="middle" dominant-baseline="middle" font-weight="700">bc：斜桿 4-3-5，長 5 m</text><text x="740.40" y="516.50" font-family="'Noto Sans CJK TC','Noto Sans TC','Microsoft JhengHei','PingFang TC','Heiti TC',sans-serif" font-size="13" fill="#B45309" text-anchor="start" dominant-baseline="middle" font-weight="700">c 為單一滾輪 ⇒ 可自由轉動，M<tspan dy="3.90" font-size="8.84">c</tspan><tspan dy="-3.90" font-size="13"> = 0</tspan></text><line x1="110.00" y1="472.50" x2="110.00" y2="585.78" stroke="#8A94A6" stroke-width="1" stroke-dasharray="3 3"/><line x1="540.00" y1="472.50" x2="540.00" y2="585.78" stroke="#8A94A6" stroke-width="1" stroke-dasharray="3 3"/><line x1="110.00" y1="568.50" x2="540.00" y2="568.50" stroke="#8A94A6" stroke-width="1.2"/><polygon points="110.00,568.50 118.00,571.70 118.00,565.30" fill="#8A94A6"/><polygon points="540.00,568.50 532.00,565.30 532.00,571.70" fill="#8A94A6"/><text x="325.00" y="584.50" font-family="'Latin Modern Math','Cambria Math','Times New Roman','Nimbus Roman',serif" font-size="14" fill="#8A94A6" text-anchor="middle" dominant-baseline="middle" font-weight="400" font-style="italic">4 m</text><line x1="540.00" y1="472.50" x2="540.00" y2="585.78" stroke="#8A94A6" stroke-width="1" stroke-dasharray="3 3"/><line x1="755.00" y1="472.50" x2="755.00" y2="585.78" stroke="#8A94A6" stroke-width="1" stroke-dasharray="3 3"/><line x1="540.00" y1="568.50" x2="755.00" y2="568.50" stroke="#8A94A6" stroke-width="1.2"/><polygon points="540.00,568.50 548.00,571.70 548.00,565.30" fill="#8A94A6"/><polygon points="755.00,568.50 747.00,565.30 747.00,571.70" fill="#8A94A6"/><text x="647.50" y="584.50" font-family="'Latin Modern Math','Cambria Math','Times New Roman','Nimbus Roman',serif" font-size="14" fill="#8A94A6" text-anchor="middle" dominant-baseline="middle" font-weight="400" font-style="italic">2 m</text><line x1="755.00" y1="472.50" x2="755.00" y2="585.78" stroke="#8A94A6" stroke-width="1" stroke-dasharray="3 3"/><line x1="970.00" y1="472.50" x2="970.00" y2="585.78" stroke="#8A94A6" stroke-width="1" stroke-dasharray="3 3"/><line x1="755.00" y1="568.50" x2="970.00" y2="568.50" stroke="#8A94A6" stroke-width="1.2"/><polygon points="755.00,568.50 763.00,571.70 763.00,565.30" fill="#8A94A6"/><polygon points="970.00,568.50 962.00,565.30 962.00,571.70" fill="#8A94A6"/><text x="862.50" y="584.50" font-family="'Latin Modern Math','Cambria Math','Times New Roman','Nimbus Roman',serif" font-size="14" fill="#8A94A6" text-anchor="middle" dominant-baseline="middle" font-weight="400" font-style="italic">2 m</text><line x1="970.00" y1="472.50" x2="1031.36" y2="472.50" stroke="#8A94A6" stroke-width="1" stroke-dasharray="3 3"/><line x1="970.00" y1="150.00" x2="1031.36" y2="150.00" stroke="#8A94A6" stroke-width="1" stroke-dasharray="3 3"/><line x1="1022.00" y1="472.50" x2="1022.00" y2="150.00" stroke="#8A94A6" stroke-width="1.2"/><polygon points="1022.00,472.50 1025.20,464.50 1018.80,464.50" fill="#8A94A6"/><polygon points="1022.00,150.00 1018.80,158.00 1025.20,158.00" fill="#8A94A6"/><text x="1035.00" y="311.25" font-family="'Latin Modern Math','Cambria Math','Times New Roman','Nimbus Roman',serif" font-size="14" fill="#8A94A6" text-anchor="middle" dominant-baseline="middle" font-weight="400" font-style="italic">3 m</text><text x="540.00" y="608.00" font-family="'Noto Sans CJK TC','Noto Sans TC','Microsoft JhengHei','PingFang TC','Heiti TC',sans-serif" font-size="13.5" fill="#6B7684" text-anchor="middle" dominant-baseline="middle" font-weight="400">反力 4 個（a 為 3、c 為 1）− 平衡 3 式 ⇒ 1 度靜不定</text><text x="540.00" y="636.00" font-family="'Noto Sans CJK TC','Noto Sans TC','Microsoft JhengHei','PingFang TC','Heiti TC',sans-serif" font-size="13.5" fill="#C0392B" text-anchor="middle" dominant-baseline="middle" font-weight="700">若把 ab／bc 對調、或把 68 kN 放在節點 b、或把 c 當成不可轉動的滑軌，整份答案都會作廢</text></svg>