<svg xmlns="http://www.w3.org/2000/svg" width="1180" height="430" viewBox="0 0 1180 430"><rect width="1180" height="430" fill="#FFFFFF"/><rect x="6" y="6" width="1168" height="418" rx="14" fill="#F5F7FA" stroke="#E1E6ED" stroke-width="1.2"/><text x="590.00" y="32.00" font-family="'Noto Sans CJK TC','Noto Sans TC','Microsoft JhengHei','PingFang TC','Heiti TC',sans-serif" font-size="15.5" fill="#1F2733" text-anchor="middle" dominant-baseline="middle" font-weight="700">題目重繪（依考卷附圖逐像素判讀）</text><text x="590.00" y="55.00" font-family="'Noto Sans CJK TC','Noto Sans TC','Microsoft JhengHei','PingFang TC','Heiti TC',sans-serif" font-size="12.5" fill="#6B7684" text-anchor="middle" dominant-baseline="middle" font-weight="400">10 @ 3 m = 30 m，高 4 m　│　a(0)、b(12)、c(18) 滾支承，e(30) 鉸支承　│　單位載重沿下弦行駛，經節點傳遞</text><line x1="74.00" y1="253.60" x2="177.20" y2="253.60" stroke="#3F4A5A" stroke-width="3.0" stroke-linecap="butt" opacity="1.0"/><line x1="177.20" y1="253.60" x2="280.40" y2="253.60" stroke="#3F4A5A" stroke-width="3.0" stroke-linecap="butt" opacity="1.0"/><line x1="280.40" y1="253.60" x2="383.60" y2="253.60" stroke="#2E7D6F" stroke-width="5.6" stroke-linecap="butt" opacity="1.0"/><line x1="383.60" y1="253.60" x2="486.80" y2="253.60" stroke="#3F4A5A" stroke-width="3.0" stroke-linecap="butt" opacity="1.0"/><line x1="486.80" y1="253.60" x2="590.00" y2="253.60" stroke="#3F4A5A" stroke-width="3.0" stroke-linecap="butt" opacity="1.0"/><line x1="590.00" y1="253.60" x2="693.20" y2="253.60" stroke="#3F4A5A" stroke-width="3.0" stroke-linecap="butt" opacity="1.0"/><line x1="693.20" y1="253.60" x2="796.40" y2="253.60" stroke="#3F4A5A" stroke-width="3.0" stroke-linecap="butt" opacity="1.0"/><line x1="796.40" y1="253.60" x2="899.60" y2="253.60" stroke="#3F4A5A" stroke-width="3.0" stroke-linecap="butt" opacity="1.0"/><line x1="899.60" y1="253.60" x2="1002.80" y2="253.60" stroke="#3F4A5A" stroke-width="3.0" stroke-linecap="butt" opacity="1.0"/><line x1="1002.80" y1="253.60" x2="1106.00" y2="253.60" stroke="#3F4A5A" stroke-width="3.0" stroke-linecap="butt" opacity="1.0"/><line x1="177.20" y1="116.00" x2="280.40" y2="116.00" stroke="#3F4A5A" stroke-width="3.0" stroke-linecap="butt" opacity="1.0"/><line x1="280.40" y1="116.00" x2="383.60" y2="116.00" stroke="#3F4A5A" stroke-width="3.0" stroke-linecap="butt" opacity="1.0"/><line x1="383.60" y1="116.00" x2="486.80" y2="116.00" stroke="#3F4A5A" stroke-width="3.0" stroke-linecap="butt" opacity="1.0"/><line x1="486.80" y1="116.00" x2="590.00" y2="116.00" stroke="#3F4A5A" stroke-width="3.0" stroke-linecap="butt" opacity="1.0"/><line x1="590.00" y1="116.00" x2="693.20" y2="116.00" stroke="#3F4A5A" stroke-width="3.0" stroke-linecap="butt" opacity="1.0"/><line x1="693.20" y1="116.00" x2="796.40" y2="116.00" stroke="#3F4A5A" stroke-width="3.0" stroke-linecap="butt" opacity="1.0"/><line x1="899.60" y1="116.00" x2="1002.80" y2="116.00" stroke="#3F4A5A" stroke-width="3.0" stroke-linecap="butt" opacity="1.0"/><line x1="177.20" y1="253.60" x2="177.20" y2="116.00" stroke="#3F4A5A" stroke-width="3.0" stroke-linecap="butt" opacity="1.0"/><line x1="280.40" y1="253.60" x2="280.40" y2="116.00" stroke="#2E7D6F" stroke-width="5.6" stroke-linecap="butt" opacity="1.0"/><line x1="383.60" y1="253.60" x2="383.60" y2="116.00" stroke="#3F4A5A" stroke-width="3.0" stroke-linecap="butt" opacity="1.0"/><line x1="486.80" y1="253.60" x2="486.80" y2="116.00" stroke="#3F4A5A" stroke-width="3.0" stroke-linecap="butt" opacity="1.0"/><line x1="590.00" y1="253.60" x2="590.00" y2="116.00" stroke="#3F4A5A" stroke-width="3.0" stroke-linecap="butt" opacity="1.0"/><line x1="693.20" y1="253.60" x2="693.20" y2="116.00" stroke="#3F4A5A" stroke-width="3.0" stroke-linecap="butt" opacity="1.0"/><line x1="796.40" y1="253.60" x2="796.40" y2="116.00" stroke="#3F4A5A" stroke-width="3.0" stroke-linecap="butt" opacity="1.0"/><line x1="899.60" y1="253.60" x2="899.60" y2="116.00" stroke="#3F4A5A" stroke-width="3.0" stroke-linecap="butt" opacity="1.0"/><line x1="1002.80" y1="253.60" x2="1002.80" y2="116.00" stroke="#3F4A5A" stroke-width="3.0" stroke-linecap="butt" opacity="1.0"/><line x1="74.00" y1="253.60" x2="177.20" y2="116.00" stroke="#3F4A5A" stroke-width="3.0" stroke-linecap="butt" opacity="1.0"/><line x1="177.20" y1="253.60" x2="280.40" y2="116.00" stroke="#8A94A6" stroke-width="2.0" stroke-linecap="butt" stroke-dasharray="7 4" opacity="1.0"/><line x1="177.20" y1="116.00" x2="280.40" y2="253.60" stroke="#8A94A6" stroke-width="2.0" stroke-linecap="butt" stroke-dasharray="7 4" opacity="1.0"/><line x1="280.40" y1="116.00" x2="383.60" y2="253.60" stroke="#2E7D6F" stroke-width="5.6" stroke-linecap="butt" opacity="1.0"/><line x1="383.60" y1="253.60" x2="486.80" y2="116.00" stroke="#8A94A6" stroke-width="2.0" stroke-linecap="butt" stroke-dasharray="7 4" opacity="1.0"/><line x1="383.60" y1="116.00" x2="486.80" y2="253.60" stroke="#8A94A6" stroke-width="2.0" stroke-linecap="butt" stroke-dasharray="7 4" opacity="1.0"/><line x1="590.00" y1="253.60" x2="693.20" y2="116.00" stroke="#8A94A6" stroke-width="2.0" stroke-linecap="butt" stroke-dasharray="7 4" opacity="1.0"/><line x1="590.00" y1="116.00" x2="693.20" y2="253.60" stroke="#8A94A6" stroke-width="2.0" stroke-linecap="butt" stroke-dasharray="7 4" opacity="1.0"/><line x1="693.20" y1="116.00" x2="796.40" y2="253.60" stroke="#3F4A5A" stroke-width="3.0" stroke-linecap="butt" opacity="1.0"/><line x1="796.40" y1="253.60" x2="899.60" y2="116.00" stroke="#3F4A5A" stroke-width="3.0" stroke-linecap="butt" opacity="1.0"/><line x1="899.60" y1="253.60" x2="1002.80" y2="116.00" stroke="#8A94A6" stroke-width="2.0" stroke-linecap="butt" stroke-dasharray="7 4" opacity="1.0"/><line x1="899.60" y1="116.00" x2="1002.80" y2="253.60" stroke="#8A94A6" stroke-width="2.0" stroke-linecap="butt" stroke-dasharray="7 4" opacity="1.0"/><line x1="1002.80" y1="116.00" x2="1106.00" y2="253.60" stroke="#3F4A5A" stroke-width="3.0" stroke-linecap="butt" opacity="1.0"/><circle cx="74.00" cy="253.60" r="3.2" fill="#3F4A5A" stroke="#FFFFFF" stroke-width="1.6"/><circle cx="177.20" cy="253.60" r="3.2" fill="#3F4A5A" stroke="#FFFFFF" stroke-width="1.6"/><circle cx="280.40" cy="253.60" r="3.2" fill="#3F4A5A" stroke="#FFFFFF" stroke-width="1.6"/><circle cx="383.60" cy="253.60" r="3.2" fill="#3F4A5A" stroke="#FFFFFF" stroke-width="1.6"/><circle cx="486.80" cy="253.60" r="3.2" fill="#3F4A5A" stroke="#FFFFFF" stroke-width="1.6"/><circle cx="590.00" cy="253.60" r="3.2" fill="#3F4A5A" stroke="#FFFFFF" stroke-width="1.6"/><circle cx="693.20" cy="253.60" r="3.2" fill="#3F4A5A" stroke="#FFFFFF" stroke-width="1.6"/><circle cx="796.40" cy="253.60" r="3.2" fill="#3F4A5A" stroke="#FFFFFF" stroke-width="1.6"/><circle cx="899.60" cy="253.60" r="3.2" fill="#3F4A5A" stroke="#FFFFFF" stroke-width="1.6"/><circle cx="1002.80" cy="253.60" r="3.2" fill="#3F4A5A" stroke="#FFFFFF" stroke-width="1.6"/><circle cx="1106.00" cy="253.60" r="3.2" fill="#3F4A5A" stroke="#FFFFFF" stroke-width="1.6"/><circle cx="177.20" cy="116.00" r="3.2" fill="#3F4A5A" stroke="#FFFFFF" stroke-width="1.6"/><circle cx="280.40" cy="116.00" r="3.2" fill="#3F4A5A" stroke="#FFFFFF" stroke-width="1.6"/><circle cx="383.60" cy="116.00" r="3.2" fill="#3F4A5A" stroke="#FFFFFF" stroke-width="1.6"/><circle cx="486.80" cy="116.00" r="3.2" fill="#3F4A5A" stroke="#FFFFFF" stroke-width="1.6"/><circle cx="590.00" cy="116.00" r="3.2" fill="#3F4A5A" stroke="#FFFFFF" stroke-width="1.6"/><circle cx="693.20" cy="116.00" r="3.2" fill="#3F4A5A" stroke="#FFFFFF" stroke-width="1.6"/><circle cx="796.40" cy="116.00" r="3.2" fill="#3F4A5A" stroke="#FFFFFF" stroke-width="1.6"/><circle cx="899.60" cy="116.00" r="3.2" fill="#3F4A5A" stroke="#FFFFFF" stroke-width="1.6"/><circle cx="1002.80" cy="116.00" r="3.2" fill="#3F4A5A" stroke="#FFFFFF" stroke-width="1.6"/><polygon points="74.00,253.60 63.20,270.85 84.80,270.85" fill="none" stroke="#3F4A5A" stroke-width="2.6" stroke-linejoin="round"/><circle cx="67.70" cy="274.75" r="3.90" fill="none" stroke="#3F4A5A" stroke-width="2"/><circle cx="74.00" cy="274.75" r="3.90" fill="none" stroke="#3F4A5A" stroke-width="2"/><circle cx="80.30" cy="274.75" r="3.90" fill="none" stroke="#3F4A5A" stroke-width="2"/><line x1="55.25" y1="278.65" x2="92.75" y2="278.65" stroke="#3F4A5A" stroke-width="2.6" stroke-linecap="round"/><line x1="56.56" y1="278.65" x2="49.56" y2="286.65" stroke="#3F4A5A" stroke-width="1.8" stroke-linecap="round"/><line x1="65.28" y1="278.65" x2="58.28" y2="286.65" stroke="#3F4A5A" stroke-width="1.8" stroke-linecap="round"/><line x1="74.00" y1="278.65" x2="67.00" y2="286.65" stroke="#3F4A5A" stroke-width="1.8" stroke-linecap="round"/><line x1="82.72" y1="278.65" x2="75.72" y2="286.65" stroke="#3F4A5A" stroke-width="1.8" stroke-linecap="round"/><line x1="91.44" y1="278.65" x2="84.44" y2="286.65" stroke="#3F4A5A" stroke-width="1.8" stroke-linecap="round"/><polygon points="486.80,253.60 476.00,270.85 497.60,270.85" fill="none" stroke="#3F4A5A" stroke-width="2.6" stroke-linejoin="round"/><circle cx="480.50" cy="274.75" r="3.90" fill="none" stroke="#3F4A5A" stroke-width="2"/><circle cx="486.80" cy="274.75" r="3.90" fill="none" stroke="#3F4A5A" stroke-width="2"/><circle cx="493.10" cy="274.75" r="3.90" fill="none" stroke="#3F4A5A" stroke-width="2"/><line x1="468.05" y1="278.65" x2="505.55" y2="278.65" stroke="#3F4A5A" stroke-width="2.6" stroke-linecap="round"/><line x1="469.36" y1="278.65" x2="462.36" y2="286.65" stroke="#3F4A5A" stroke-width="1.8" stroke-linecap="round"/><line x1="478.08" y1="278.65" x2="471.08" y2="286.65" stroke="#3F4A5A" stroke-width="1.8" stroke-linecap="round"/><line x1="486.80" y1="278.65" x2="479.80" y2="286.65" stroke="#3F4A5A" stroke-width="1.8" stroke-linecap="round"/><line x1="495.52" y1="278.65" x2="488.52" y2="286.65" stroke="#3F4A5A" stroke-width="1.8" stroke-linecap="round"/><line x1="504.24" y1="278.65" x2="497.24" y2="286.65" stroke="#3F4A5A" stroke-width="1.8" stroke-linecap="round"/><polygon points="693.20,253.60 682.40,270.85 704.00,270.85" fill="none" stroke="#3F4A5A" stroke-width="2.6" stroke-linejoin="round"/><circle cx="686.90" cy="274.75" r="3.90" fill="none" stroke="#3F4A5A" stroke-width="2"/><circle cx="693.20" cy="274.75" r="3.90" fill="none" stroke="#3F4A5A" stroke-width="2"/><circle cx="699.50" cy="274.75" r="3.90" fill="none" stroke="#3F4A5A" stroke-width="2"/><line x1="674.45" y1="278.65" x2="711.95" y2="278.65" stroke="#3F4A5A" stroke-width="2.6" stroke-linecap="round"/><line x1="675.76" y1="278.65" x2="668.76" y2="286.65" stroke="#3F4A5A" stroke-width="1.8" stroke-linecap="round"/><line x1="684.48" y1="278.65" x2="677.48" y2="286.65" stroke="#3F4A5A" stroke-width="1.8" stroke-linecap="round"/><line x1="693.20" y1="278.65" x2="686.20" y2="286.65" stroke="#3F4A5A" stroke-width="1.8" stroke-linecap="round"/><line x1="701.92" y1="278.65" x2="694.92" y2="286.65" stroke="#3F4A5A" stroke-width="1.8" stroke-linecap="round"/><line x1="710.64" y1="278.65" x2="703.64" y2="286.65" stroke="#3F4A5A" stroke-width="1.8" stroke-linecap="round"/><polygon points="1106.00,253.60 1095.20,270.85 1116.80,270.85" fill="none" stroke="#3F4A5A" stroke-width="2.6" stroke-linejoin="round"/><line x1="1087.25" y1="270.85" x2="1124.75" y2="270.85" stroke="#3F4A5A" stroke-width="2.6" stroke-linecap="round"/><line x1="1088.56" y1="270.85" x2="1081.56" y2="278.85" stroke="#3F4A5A" stroke-width="1.8" stroke-linecap="round"/><line x1="1097.28" y1="270.85" x2="1090.28" y2="278.85" stroke="#3F4A5A" stroke-width="1.8" stroke-linecap="round"/><line x1="1106.00" y1="270.85" x2="1099.00" y2="278.85" stroke="#3F4A5A" stroke-width="1.8" stroke-linecap="round"/><line x1="1114.72" y1="270.85" x2="1107.72" y2="278.85" stroke="#3F4A5A" stroke-width="1.8" stroke-linecap="round"/><line x1="1123.44" y1="270.85" x2="1116.44" y2="278.85" stroke="#3F4A5A" stroke-width="1.8" stroke-linecap="round"/><text x="280.40" y="98.00" font-family="'Noto Sans CJK TC','Noto Sans TC','Microsoft JhengHei','PingFang TC','Heiti TC',sans-serif" font-size="17" fill="#2E7D6F" text-anchor="middle" dominant-baseline="middle" font-weight="700" font-style="italic">k</text><text x="280.40" y="293.60" font-family="'Noto Sans CJK TC','Noto Sans TC','Microsoft JhengHei','PingFang TC','Heiti TC',sans-serif" font-size="17" fill="#2E7D6F" text-anchor="middle" dominant-baseline="middle" font-weight="700" font-style="italic">m</text><text x="383.60" y="293.60" font-family="'Noto Sans CJK TC','Noto Sans TC','Microsoft JhengHei','PingFang TC','Heiti TC',sans-serif" font-size="17" fill="#2E7D6F" text-anchor="middle" dominant-baseline="middle" font-weight="700" font-style="italic">n</text><text x="74.00" y="293.60" font-family="'Noto Sans CJK TC','Noto Sans TC','Microsoft JhengHei','PingFang TC','Heiti TC',sans-serif" font-size="16" fill="#1F2733" text-anchor="middle" dominant-baseline="middle" font-weight="700" font-style="italic">a</text><text x="486.80" y="293.60" font-family="'Noto Sans CJK TC','Noto Sans TC','Microsoft JhengHei','PingFang TC','Heiti TC',sans-serif" font-size="16" fill="#1F2733" text-anchor="middle" dominant-baseline="middle" font-weight="700" font-style="italic">b</text><text x="693.20" y="293.60" font-family="'Noto Sans CJK TC','Noto Sans TC','Microsoft JhengHei','PingFang TC','Heiti TC',sans-serif" font-size="16" fill="#1F2733" text-anchor="middle" dominant-baseline="middle" font-weight="700" font-style="italic">c</text><text x="796.40" y="293.60" font-family="'Noto Sans CJK TC','Noto Sans TC','Microsoft JhengHei','PingFang TC','Heiti TC',sans-serif" font-size="16" fill="#1F2733" text-anchor="middle" dominant-baseline="middle" font-weight="700" font-style="italic">d</text><text x="1106.00" y="293.60" font-family="'Noto Sans CJK TC','Noto Sans TC','Microsoft JhengHei','PingFang TC','Heiti TC',sans-serif" font-size="16" fill="#1F2733" text-anchor="middle" dominant-baseline="middle" font-weight="700" font-style="italic">e</text><text x="228.80" y="68.00" font-family="'Noto Sans CJK TC','Noto Sans TC','Microsoft JhengHei','PingFang TC','Heiti TC',sans-serif" font-size="12.5" fill="#8A94A6" text-anchor="middle" dominant-baseline="middle" font-weight="700">X：細長拉桿（只受拉）</text><text x="332.00" y="94.00" font-family="'Noto Sans CJK TC','Noto Sans TC','Microsoft JhengHei','PingFang TC','Heiti TC',sans-serif" font-size="13" fill="#2E7D6F" text-anchor="middle" dominant-baseline="middle" font-weight="700">6–9：單斜桿</text><text x="538.40" y="94.00" font-family="'Noto Sans CJK TC','Noto Sans TC','Microsoft JhengHei','PingFang TC','Heiti TC',sans-serif" font-size="13" fill="#C0392B" text-anchor="middle" dominant-baseline="middle" font-weight="700">12–15：整格無斜桿</text><text x="538.40" y="184.80" font-family="'Noto Sans CJK TC','Noto Sans TC','Microsoft JhengHei','PingFang TC','Heiti TC',sans-serif" font-size="14" fill="#C0392B" text-anchor="middle" dominant-baseline="middle" font-weight="700">無斜桿</text><text x="848.00" y="94.00" font-family="'Noto Sans CJK TC','Noto Sans TC','Microsoft JhengHei','PingFang TC','Heiti TC',sans-serif" font-size="13" fill="#B45309" text-anchor="middle" dominant-baseline="middle" font-weight="700">21–24：無上弦</text><line x1="74.00" y1="253.60" x2="74.00" y2="340.92" stroke="#8A94A6" stroke-width="1" stroke-dasharray="3 3"/><line x1="1106.00" y1="253.60" x2="1106.00" y2="340.92" stroke="#8A94A6" stroke-width="1" stroke-dasharray="3 3"/><line x1="74.00" y1="327.60" x2="1106.00" y2="327.60" stroke="#8A94A6" stroke-width="1.2"/><polygon points="74.00,327.60 82.00,330.80 82.00,324.40" fill="#8A94A6"/><polygon points="1106.00,327.60 1098.00,324.40 1098.00,330.80" fill="#8A94A6"/><text x="590.00" y="342.60" font-family="'Latin Modern Math','Cambria Math','Times New Roman','Nimbus Roman',serif" font-size="14" fill="#8A94A6" text-anchor="middle" dominant-baseline="middle" font-weight="400" font-style="italic">10 @ 3 m = 30 m</text><line x1="1106.00" y1="253.60" x2="1155.56" y2="253.60" stroke="#8A94A6" stroke-width="1" stroke-dasharray="3 3"/><line x1="1106.00" y1="116.00" x2="1155.56" y2="116.00" stroke="#8A94A6" stroke-width="1" stroke-dasharray="3 3"/><line x1="1148.00" y1="253.60" x2="1148.00" y2="116.00" stroke="#8A94A6" stroke-width="1.2"/><polygon points="1148.00,253.60 1151.20,245.60 1144.80,245.60" fill="#8A94A6"/><polygon points="1148.00,116.00 1144.80,124.00 1151.20,124.00" fill="#8A94A6"/><text x="1160.00" y="184.80" font-family="'Latin Modern Math','Cambria Math','Times New Roman','Nimbus Roman',serif" font-size="14" fill="#8A94A6" text-anchor="middle" dominant-baseline="middle" font-weight="400" font-style="italic">4 m</text><text x="590.00" y="380.00" font-family="'Noto Sans CJK TC','Noto Sans TC','Microsoft JhengHei','PingFang TC','Heiti TC',sans-serif" font-size="13.5" fill="#6B7684" text-anchor="middle" dominant-baseline="middle" font-weight="400">桿件 m = 39，反力 r = 5，節點 j = 20　⇒　m + r − 2j = 4　＝　X 型細長拉桿鬆弛的根數 4　⇒　靜定</text><text x="590.00" y="406.00" font-family="'Noto Sans CJK TC','Noto Sans TC','Microsoft JhengHei','PingFang TC','Heiti TC',sans-serif" font-size="13.5" fill="#C0392B" text-anchor="middle" dominant-baseline="middle" font-weight="700">b 點沒有內部鉸。讓結構可解的是「12–15 嵌板無斜桿」與「d 處只切到兩根交於 d 的桿」</text></svg>